<svg id="visual" viewBox="0 0 900 600" width="900" height="600" xmlns="http://www.w3.org/2000/svg" xmlns:xlink="http://www.w3.org/1999/xlink" version="1.1"><path d="M0 325L10.7 349.5C21.3 374 42.7 423 64.2 442.2C85.7 461.3 107.3 450.7 128.8 440C150.3 429.3 171.7 418.7 193 409.5C214.3 400.3 235.7 392.7 257 375.8C278.3 359 299.7 333 321.2 322.7C342.7 312.3 364.3 317.7 385.8 331.3C407.3 345 428.7 367 450 378C471.3 389 492.7 389 514.2 397.5C535.7 406 557.3 423 578.8 409.5C600.3 396 621.7 352 643 329C664.3 306 685.7 304 707 308.2C728.3 312.3 749.7 322.7 771.2 325.3C792.7 328 814.3 323 835.8 326.2C857.3 329.3 878.7 340.7 889.3 346.3L900 352L900 601L889.3 601C878.7 601 857.3 601 835.8 601C814.3 601 792.7 601 771.2 601C749.7 601 728.3 601 707 601C685.7 601 664.3 601 643 601C621.7 601 600.3 601 578.8 601C557.3 601 535.7 601 514.2 601C492.7 601 471.3 601 450 601C428.7 601 407.3 601 385.8 601C364.3 601 342.7 601 321.2 601C299.7 601 278.3 601 257 601C235.7 601 214.3 601 193 601C171.7 601 150.3 601 128.8 601C107.3 601 85.7 601 64.2 601C42.7 601 21.3 601 10.7 601L0 601Z" fill="#3fc1c5"></path><path d="M0 357L10.7 357.5C21.3 358 42.7 359 64.2 367C85.7 375 107.3 390 128.8 387.5C150.3 385 171.7 365 193 373.2C214.3 381.3 235.7 417.7 257 419.7C278.3 421.7 299.7 389.3 321.2 379.5C342.7 369.7 364.3 382.3 385.8 389.3C407.3 396.3 428.7 397.7 450 400.8C471.3 404 492.7 409 514.2 416.5C535.7 424 557.3 434 578.8 421C600.3 408 621.7 372 643 379.3C664.3 386.7 685.7 437.3 707 442.5C728.3 447.7 749.7 407.3 771.2 385C792.7 362.7 814.3 358.3 835.8 353.3C857.3 348.3 878.7 342.7 889.3 339.8L900 337L900 601L889.3 601C878.7 601 857.3 601 835.8 601C814.3 601 792.7 601 771.2 601C749.7 601 728.3 601 707 601C685.7 601 664.3 601 643 601C621.7 601 600.3 601 578.8 601C557.3 601 535.7 601 514.2 601C492.7 601 471.3 601 450 601C428.7 601 407.3 601 385.8 601C364.3 601 342.7 601 321.2 601C299.7 601 278.3 601 257 601C235.7 601 214.3 601 193 601C171.7 601 150.3 601 128.8 601C107.3 601 85.7 601 64.2 601C42.7 601 21.3 601 10.7 601L0 601Z" fill="#5dc7ca"></path><path d="M0 373L10.7 382.8C21.3 392.7 42.7 412.3 64.2 419.2C85.7 426 107.3 420 128.8 428.5C150.3 437 171.7 460 193 470.7C214.3 481.3 235.7 479.7 257 481.2C278.3 482.7 299.7 487.3 321.2 474.7C342.7 462 364.3 432 385.8 426.3C407.3 420.7 428.7 439.3 450 441.5C471.3 443.7 492.7 429.3 514.2 424.2C535.7 419 557.3 423 578.8 422.7C600.3 422.3 621.7 417.7 643 423C664.3 428.3 685.7 443.7 707 434.7C728.3 425.7 749.7 392.3 771.2 375.2C792.7 358 814.3 357 835.8 366.5C857.3 376 878.7 396 889.3 406L900 416L900 601L889.3 601C878.7 601 857.3 601 835.8 601C814.3 601 792.7 601 771.2 601C749.7 601 728.3 601 707 601C685.7 601 664.3 601 643 601C621.7 601 600.3 601 578.8 601C557.3 601 535.7 601 514.2 601C492.7 601 471.3 601 450 601C428.7 601 407.3 601 385.8 601C364.3 601 342.7 601 321.2 601C299.7 601 278.3 601 257 601C235.7 601 214.3 601 193 601C171.7 601 150.3 601 128.8 601C107.3 601 85.7 601 64.2 601C42.7 601 21.3 601 10.7 601L0 601Z" fill="#75cdd0"></path><path d="M0 513L10.7 491.8C21.3 470.7 42.7 428.3 64.2 426.2C85.7 424 107.3 462 128.8 482.5C150.3 503 171.7 506 193 498.3C214.3 490.7 235.7 472.3 257 468.3C278.3 464.3 299.7 474.7 321.2 477C342.7 479.3 364.3 473.7 385.8 473.7C407.3 473.7 428.7 479.3 450 478.3C471.3 477.3 492.7 469.7 514.2 465.8C535.7 462 557.3 462 578.8 456C600.3 450 621.7 438 643 430.2C664.3 422.3 685.7 418.7 707 420.5C728.3 422.3 749.7 429.7 771.2 444.7C792.7 459.7 814.3 482.3 835.8 484.5C857.3 486.7 878.7 468.3 889.3 459.2L900 450L900 601L889.3 601C878.7 601 857.3 601 835.8 601C814.3 601 792.7 601 771.2 601C749.7 601 728.3 601 707 601C685.7 601 664.3 601 643 601C621.7 601 600.3 601 578.8 601C557.3 601 535.7 601 514.2 601C492.7 601 471.3 601 450 601C428.7 601 407.3 601 385.8 601C364.3 601 342.7 601 321.2 601C299.7 601 278.3 601 257 601C235.7 601 214.3 601 193 601C171.7 601 150.3 601 128.8 601C107.3 601 85.7 601 64.2 601C42.7 601 21.3 601 10.7 601L0 601Z" fill="#8ad2d5"></path><path d="M0 436L10.7 446.5C21.3 457 42.7 478 64.2 488.5C85.7 499 107.3 499 128.8 495.3C150.3 491.7 171.7 484.3 193 483.8C214.3 483.3 235.7 489.7 257 480.7C278.3 471.7 299.7 447.3 321.2 446.5C342.7 445.7 364.3 468.3 385.8 466.2C407.3 464 428.7 437 450 439.8C471.3 442.7 492.7 475.3 514.2 493.7C535.7 512 557.3 516 578.8 510.3C600.3 504.7 621.7 489.3 643 471.5C664.3 453.7 685.7 433.3 707 423.3C728.3 413.3 749.7 413.7 771.2 426.7C792.7 439.7 814.3 465.3 835.8 465.5C857.3 465.7 878.7 440.3 889.3 427.7L900 415L900 601L889.3 601C878.7 601 857.3 601 835.8 601C814.3 601 792.7 601 771.2 601C749.7 601 728.3 601 707 601C685.7 601 664.3 601 643 601C621.7 601 600.3 601 578.8 601C557.3 601 535.7 601 514.2 601C492.7 601 471.3 601 450 601C428.7 601 407.3 601 385.8 601C364.3 601 342.7 601 321.2 601C299.7 601 278.3 601 257 601C235.7 601 214.3 601 193 601C171.7 601 150.3 601 128.8 601C107.3 601 85.7 601 64.2 601C42.7 601 21.3 601 10.7 601L0 601Z" fill="#9ed8da"></path><path d="M0 514L10.7 505.8C21.3 497.7 42.7 481.3 64.2 478.7C85.7 476 107.3 487 128.8 489.3C150.3 491.7 171.7 485.3 193 487.7C214.3 490 235.7 501 257 494.3C278.3 487.7 299.7 463.3 321.2 451.5C342.7 439.7 364.3 440.3 385.8 447.5C407.3 454.7 428.7 468.3 450 484.5C471.3 500.7 492.7 519.3 514.2 522C535.7 524.7 557.3 511.3 578.8 509.8C600.3 508.3 621.7 518.7 643 509C664.3 499.3 685.7 469.7 707 462.2C728.3 454.7 749.7 469.3 771.2 471C792.7 472.7 814.3 461.3 835.8 469.8C857.3 478.3 878.7 506.7 889.3 520.8L900 535L900 601L889.3 601C878.7 601 857.3 601 835.8 601C814.3 601 792.7 601 771.2 601C749.7 601 728.3 601 707 601C685.7 601 664.3 601 643 601C621.7 601 600.3 601 578.8 601C557.3 601 535.7 601 514.2 601C492.7 601 471.3 601 450 601C428.7 601 407.3 601 385.8 601C364.3 601 342.7 601 321.2 601C299.7 601 278.3 601 257 601C235.7 601 214.3 601 193 601C171.7 601 150.3 601 128.8 601C107.3 601 85.7 601 64.2 601C42.7 601 21.3 601 10.7 601L0 601Z" fill="#b0dee0"></path><path d="M0 526L10.7 529.3C21.3 532.7 42.7 539.3 64.2 530.5C85.7 521.7 107.3 497.3 128.8 495.2C150.3 493 171.7 513 193 519.2C214.3 525.3 235.7 517.7 257 518C278.3 518.3 299.7 526.7 321.2 530.7C342.7 534.7 364.3 534.3 385.8 535C407.3 535.7 428.7 537.3 450 537.5C471.3 537.7 492.7 536.3 514.2 536.2C535.7 536 557.3 537 578.8 538.7C600.3 540.3 621.7 542.7 643 543.3C664.3 544 685.7 543 707 533.8C728.3 524.7 749.7 507.3 771.2 507.7C792.7 508 814.3 526 835.8 522.7C857.3 519.3 878.7 494.7 889.3 482.3L900 470L900 601L889.3 601C878.7 601 857.3 601 835.8 601C814.3 601 792.7 601 771.2 601C749.7 601 728.3 601 707 601C685.7 601 664.3 601 643 601C621.7 601 600.3 601 578.8 601C557.3 601 535.7 601 514.2 601C492.7 601 471.3 601 450 601C428.7 601 407.3 601 385.8 601C364.3 601 342.7 601 321.2 601C299.7 601 278.3 601 257 601C235.7 601 214.3 601 193 601C171.7 601 150.3 601 128.8 601C107.3 601 85.7 601 64.2 601C42.7 601 21.3 601 10.7 601L0 601Z" fill="#c2e4e5"></path><path d="M0 544L10.7 538.3C21.3 532.7 42.7 521.3 64.2 514.8C85.7 508.3 107.3 506.7 128.8 512C150.3 517.3 171.7 529.7 193 528.7C214.3 527.7 235.7 513.3 257 509.2C278.3 505 299.7 511 321.2 520.7C342.7 530.3 364.3 543.7 385.8 539.7C407.3 535.7 428.7 514.3 450 507.5C471.3 500.7 492.7 508.3 514.2 510.5C535.7 512.7 557.3 509.3 578.8 505.8C600.3 502.3 621.7 498.7 643 501.8C664.3 505 685.7 515 707 522.2C728.3 529.3 749.7 533.7 771.2 533.2C792.7 532.7 814.3 527.3 835.8 529.3C857.3 531.3 878.7 540.7 889.3 545.3L900 550L900 601L889.3 601C878.7 601 857.3 601 835.8 601C814.3 601 792.7 601 771.2 601C749.7 601 728.3 601 707 601C685.7 601 664.3 601 643 601C621.7 601 600.3 601 578.8 601C557.3 601 535.7 601 514.2 601C492.7 601 471.3 601 450 601C428.7 601 407.3 601 385.8 601C364.3 601 342.7 601 321.2 601C299.7 601 278.3 601 257 601C235.7 601 214.3 601 193 601C171.7 601 150.3 601 128.8 601C107.3 601 85.7 601 64.2 601C42.7 601 21.3 601 10.7 601L0 601Z" fill="#d3eaea"></path><path d="M0 529L10.7 533.3C21.3 537.7 42.7 546.3 64.2 545C85.7 543.7 107.3 532.3 128.8 532C150.3 531.7 171.7 542.3 193 543.7C214.3 545 235.7 537 257 535C278.3 533 299.7 537 321.2 539.2C342.7 541.3 364.3 541.7 385.8 538.2C407.3 534.7 428.7 527.3 450 525.3C471.3 523.3 492.7 526.7 514.2 534.5C535.7 542.3 557.3 554.7 578.8 560.3C600.3 566 621.7 565 643 565.7C664.3 566.3 685.7 568.7 707 562.2C728.3 555.7 749.7 540.3 771.2 535.5C792.7 530.7 814.3 536.3 835.8 538.2C857.3 540 878.7 538 889.3 537L900 536L900 601L889.3 601C878.7 601 857.3 601 835.8 601C814.3 601 792.7 601 771.2 601C749.7 601 728.3 601 707 601C685.7 601 664.3 601 643 601C621.7 601 600.3 601 578.8 601C557.3 601 535.7 601 514.2 601C492.7 601 471.3 601 450 601C428.7 601 407.3 601 385.8 601C364.3 601 342.7 601 321.2 601C299.7 601 278.3 601 257 601C235.7 601 214.3 601 193 601C171.7 601 150.3 601 128.8 601C107.3 601 85.7 601 64.2 601C42.7 601 21.3 601 10.7 601L0 601Z" fill="#e4eff0"></path><path d="M0 551L10.7 551.8C21.3 552.7 42.7 554.3 64.2 554C85.7 553.7 107.3 551.3 128.8 553.2C150.3 555 171.7 561 193 564.8C214.3 568.7 235.7 570.3 257 567.5C278.3 564.7 299.7 557.3 321.2 559.2C342.7 561 364.3 572 385.8 574.3C407.3 576.7 428.7 570.3 450 568.3C471.3 566.3 492.7 568.7 514.2 567.5C535.7 566.3 557.3 561.7 578.8 563.7C600.3 565.7 621.7 574.3 643 576C664.3 577.7 685.7 572.3 707 568C728.3 563.7 749.7 560.3 771.2 560.2C792.7 560 814.3 563 835.8 561.3C857.3 559.7 878.7 553.3 889.3 550.2L900 547L900 601L889.3 601C878.7 601 857.3 601 835.8 601C814.3 601 792.7 601 771.2 601C749.7 601 728.3 601 707 601C685.7 601 664.3 601 643 601C621.7 601 600.3 601 578.8 601C557.3 601 535.7 601 514.2 601C492.7 601 471.3 601 450 601C428.7 601 407.3 601 385.8 601C364.3 601 342.7 601 321.2 601C299.7 601 278.3 601 257 601C235.7 601 214.3 601 193 601C171.7 601 150.3 601 128.8 601C107.3 601 85.7 601 64.2 601C42.7 601 21.3 601 10.7 601L0 601Z" fill="#f5f5f5"></path></svg>