<svg id="visual" viewBox="0 0 900 600" width="900" height="600" xmlns="http://www.w3.org/2000/svg" xmlns:xlink="http://www.w3.org/1999/xlink" version="1.1"><rect x="0" y="0" width="900" height="600" fill="#EDEDED"></rect><defs><linearGradient id="grad1_0" x1="33.3%" y1="0%" x2="100%" y2="100%"><stop offset="20%" stop-color="#8ccbcc" stop-opacity="1"></stop><stop offset="80%" stop-color="#8ccbcc" stop-opacity="1"></stop></linearGradient></defs><defs><linearGradient id="grad1_1" x1="33.3%" y1="0%" x2="100%" y2="100%"><stop offset="20%" stop-color="#8ccbcc" stop-opacity="1"></stop><stop offset="80%" stop-color="#a6d4d4" stop-opacity="1"></stop></linearGradient></defs><defs><linearGradient id="grad1_2" x1="33.3%" y1="0%" x2="100%" y2="100%"><stop offset="20%" stop-color="#bedcdc" stop-opacity="1"></stop><stop offset="80%" stop-color="#a6d4d4" stop-opacity="1"></stop></linearGradient></defs><defs><linearGradient id="grad1_3" x1="33.3%" y1="0%" x2="100%" y2="100%"><stop offset="20%" stop-color="#bedcdc" stop-opacity="1"></stop><stop offset="80%" stop-color="#d6e5e5" stop-opacity="1"></stop></linearGradient></defs><defs><linearGradient id="grad1_4" x1="33.3%" y1="0%" x2="100%" y2="100%"><stop offset="20%" stop-color="#ededed" stop-opacity="1"></stop><stop offset="80%" stop-color="#d6e5e5" stop-opacity="1"></stop></linearGradient></defs><defs><linearGradient id="grad2_0" x1="0%" y1="0%" x2="66.7%" y2="100%"><stop offset="20%" stop-color="#8ccbcc" stop-opacity="1"></stop><stop offset="80%" stop-color="#8ccbcc" stop-opacity="1"></stop></linearGradient></defs><defs><linearGradient id="grad2_1" x1="0%" y1="0%" x2="66.7%" y2="100%"><stop offset="20%" stop-color="#a6d4d4" stop-opacity="1"></stop><stop offset="80%" stop-color="#8ccbcc" stop-opacity="1"></stop></linearGradient></defs><defs><linearGradient id="grad2_2" x1="0%" y1="0%" x2="66.7%" y2="100%"><stop offset="20%" stop-color="#a6d4d4" stop-opacity="1"></stop><stop offset="80%" stop-color="#bedcdc" stop-opacity="1"></stop></linearGradient></defs><defs><linearGradient id="grad2_3" x1="0%" y1="0%" x2="66.7%" y2="100%"><stop offset="20%" stop-color="#d6e5e5" stop-opacity="1"></stop><stop offset="80%" stop-color="#bedcdc" stop-opacity="1"></stop></linearGradient></defs><defs><linearGradient id="grad2_4" x1="0%" y1="0%" x2="66.7%" y2="100%"><stop offset="20%" stop-color="#d6e5e5" stop-opacity="1"></stop><stop offset="80%" stop-color="#ededed" stop-opacity="1"></stop></linearGradient></defs><g transform="translate(900, 0)"><path d="M0 405.6C-27.8 406.3 -55.6 407 -78 392.3C-100.5 377.6 -117.6 347.4 -137.4 331.7C-157.2 315.9 -179.8 314.7 -208.9 312.6C-238 310.6 -273.7 307.8 -286.8 286.8C-299.9 265.8 -290.4 226.5 -302.7 202.2C-314.9 177.9 -348.9 168.6 -358.5 148.5C-368 128.4 -353.2 97.6 -357 71C-360.8 44.5 -383.2 22.2 -405.6 0L0 0Z" fill="#e1e9e9"></path><path d="M0 324.5C-22.2 325.1 -44.5 325.6 -62.4 313.9C-80.4 302.1 -94 277.9 -109.9 265.3C-125.8 252.8 -143.8 251.7 -167.1 250.1C-190.4 248.5 -219 246.3 -229.5 229.5C-239.9 212.6 -232.3 181.2 -242.1 161.8C-251.9 142.3 -279.1 134.9 -286.8 118.8C-294.4 102.7 -282.6 78 -285.6 56.8C-288.6 35.6 -306.6 17.8 -324.5 0L0 0Z" fill="#cae0e1"></path><path d="M0 243.4C-16.7 243.8 -33.4 244.2 -46.8 235.4C-60.3 226.5 -70.5 208.4 -82.4 199C-94.3 189.6 -107.9 188.8 -125.3 187.6C-142.8 186.4 -164.2 184.7 -172.1 172.1C-180 159.5 -174.2 135.9 -181.6 121.3C-188.9 106.8 -209.3 101.1 -215.1 89.1C-220.8 77 -211.9 58.5 -214.2 42.6C-216.5 26.7 -229.9 13.3 -243.4 0L0 0Z" fill="#b2d8d8"></path><path d="M0 162.2C-11.1 162.5 -22.2 162.8 -31.2 156.9C-40.2 151 -47 139 -55 132.7C-62.9 126.4 -71.9 125.9 -83.6 125.1C-95.2 124.2 -109.5 123.1 -114.7 114.7C-120 106.3 -116.2 90.6 -121.1 80.9C-126 71.2 -139.6 67.4 -143.4 59.4C-147.2 51.4 -141.3 39 -142.8 28.4C-144.3 17.8 -153.3 8.9 -162.2 0L0 0Z" fill="#99cfd0"></path><path d="M0 81.1C-5.6 81.3 -11.1 81.4 -15.6 78.5C-20.1 75.5 -23.5 69.5 -27.5 66.3C-31.4 63.2 -36 62.9 -41.8 62.5C-47.6 62.1 -54.7 61.6 -57.4 57.4C-60 53.2 -58.1 45.3 -60.5 40.4C-63 35.6 -69.8 33.7 -71.7 29.7C-73.6 25.7 -70.6 19.5 -71.4 14.2C-72.2 8.9 -76.6 4.4 -81.1 0L0 0Z" fill="#8ccbcc"></path></g><g transform="translate(0, 600)"><path d="M0 -405.6C21.9 -372.1 43.7 -338.5 63.8 -320.7C83.9 -302.9 102.2 -300.8 124 -299.3C145.8 -297.9 170.9 -297.1 192.8 -288.5C214.6 -280 233.1 -263.7 244 -244C254.8 -224.2 258 -201.1 280.2 -187.2C302.5 -173.3 343.8 -168.6 366.8 -151.9C389.8 -135.2 394.4 -106.5 397.8 -79.1C401.2 -51.8 403.4 -25.9 405.6 0L0 0Z" fill="#e1e9e9"></path><path d="M0 -324.5C17.5 -297.7 35 -270.8 51 -256.6C67.1 -242.3 81.8 -240.6 99.2 -239.5C116.6 -238.3 136.8 -237.7 154.2 -230.8C171.7 -224 186.5 -210.9 195.2 -195.2C203.8 -179.4 206.4 -160.9 224.2 -149.8C242 -138.7 275 -134.9 293.4 -121.5C311.8 -108.2 315.5 -85.2 318.3 -63.3C321 -41.4 322.7 -20.7 324.5 0L0 0Z" fill="#cae0e1"></path><path d="M0 -243.4C13.1 -223.2 26.2 -203.1 38.3 -192.4C50.3 -181.7 61.3 -180.5 74.4 -179.6C87.5 -178.7 102.6 -178.2 115.7 -173.1C128.8 -168 139.9 -158.2 146.4 -146.4C152.9 -134.5 154.8 -120.7 168.1 -112.3C181.5 -104 206.3 -101.2 220.1 -91.2C233.9 -81.1 236.6 -63.9 238.7 -47.5C240.7 -31.1 242.1 -15.5 243.4 0L0 0Z" fill="#b2d8d8"></path><path d="M0 -162.2C8.7 -148.8 17.5 -135.4 25.5 -128.3C33.6 -121.2 40.9 -120.3 49.6 -119.7C58.3 -119.2 68.4 -118.8 77.1 -115.4C85.8 -112 93.2 -105.5 97.6 -97.6C101.9 -89.7 103.2 -80.5 112.1 -74.9C121 -69.3 137.5 -67.5 146.7 -60.8C155.9 -54.1 157.8 -42.6 159.1 -31.7C160.5 -20.7 161.4 -10.4 162.2 0L0 0Z" fill="#99cfd0"></path><path d="M0 -81.1C4.4 -74.4 8.7 -67.7 12.8 -64.1C16.8 -60.6 20.4 -60.2 24.8 -59.9C29.2 -59.6 34.2 -59.4 38.6 -57.7C42.9 -56 46.6 -52.7 48.8 -48.8C51 -44.8 51.6 -40.2 56 -37.4C60.5 -34.7 68.8 -33.7 73.4 -30.4C78 -27 78.9 -21.3 79.6 -15.8C80.2 -10.4 80.7 -5.2 81.1 0L0 0Z" fill="#8ccbcc"></path></g></svg>