<svg id="visual" viewBox="0 0 900 600" width="900" height="600" xmlns="http://www.w3.org/2000/svg" xmlns:xlink="http://www.w3.org/1999/xlink" version="1.1"><path d="M0 441L39 440L78 453L117 433L157 460L196 435L235 451L274 440L313 455L352 421L391 455L430 435L470 461L509 443L548 457L587 441L626 445L665 454L704 450L743 421L783 455L822 426L861 420L900 457L900 601L861 601L822 601L783 601L743 601L704 601L665 601L626 601L587 601L548 601L509 601L470 601L430 601L391 601L352 601L313 601L274 601L235 601L196 601L157 601L117 601L78 601L39 601L0 601Z" fill="#1e868c"></path><path d="M0 439L39 459L78 434L117 458L157 448L196 454L235 449L274 433L313 453L352 456L391 465L430 451L470 449L509 438L548 464L587 446L626 449L665 435L704 471L743 458L783 456L822 440L861 466L900 458L900 601L861 601L822 601L783 601L743 601L704 601L665 601L626 601L587 601L548 601L509 601L470 601L430 601L391 601L352 601L313 601L274 601L235 601L196 601L157 601L117 601L78 601L39 601L0 601Z" fill="#3c9095"></path><path d="M0 450L39 475L78 485L117 448L157 470L196 470L235 456L274 462L313 464L352 474L391 454L430 469L470 451L509 481L548 465L587 454L626 486L665 466L704 455L743 484L783 460L822 458L861 448L900 485L900 601L861 601L822 601L783 601L743 601L704 601L665 601L626 601L587 601L548 601L509 601L470 601L430 601L391 601L352 601L313 601L274 601L235 601L196 601L157 601L117 601L78 601L39 601L0 601Z" fill="#529a9e"></path><path d="M0 471L39 463L78 481L117 477L157 488L196 497L235 480L274 478L313 487L352 492L391 473L430 463L470 468L509 493L548 494L587 475L626 496L665 461L704 482L743 492L783 478L822 462L861 493L900 486L900 601L861 601L822 601L783 601L743 601L704 601L665 601L626 601L587 601L548 601L509 601L470 601L430 601L391 601L352 601L313 601L274 601L235 601L196 601L157 601L117 601L78 601L39 601L0 601Z" fill="#66a4a7"></path><path d="M0 487L39 490L78 491L117 494L157 491L196 501L235 500L274 493L313 503L352 501L391 475L430 494L470 476L509 507L548 505L587 481L626 484L665 486L704 493L743 510L783 496L822 503L861 480L900 486L900 601L861 601L822 601L783 601L743 601L704 601L665 601L626 601L587 601L548 601L509 601L470 601L430 601L391 601L352 601L313 601L274 601L235 601L196 601L157 601L117 601L78 601L39 601L0 601Z" fill="#79aeb1"></path><path d="M0 500L39 490L78 517L117 491L157 507L196 511L235 503L274 520L313 514L352 512L391 499L430 509L470 503L509 495L548 515L587 502L626 509L665 497L704 520L743 490L783 492L822 511L861 514L900 511L900 601L861 601L822 601L783 601L743 601L704 601L665 601L626 601L587 601L548 601L509 601L470 601L430 601L391 601L352 601L313 601L274 601L235 601L196 601L157 601L117 601L78 601L39 601L0 601Z" fill="#8bb8ba"></path><path d="M0 506L39 513L78 524L117 527L157 514L196 525L235 503L274 535L313 519L352 523L391 504L430 527L470 527L509 522L548 517L587 506L626 523L665 504L704 505L743 533L783 530L822 516L861 518L900 529L900 601L861 601L822 601L783 601L743 601L704 601L665 601L626 601L587 601L548 601L509 601L470 601L430 601L391 601L352 601L313 601L274 601L235 601L196 601L157 601L117 601L78 601L39 601L0 601Z" fill="#9dc2c4"></path><path d="M0 518L39 519L78 525L117 518L157 521L196 518L235 543L274 523L313 542L352 518L391 519L430 532L470 521L509 520L548 540L587 546L626 520L665 524L704 531L743 535L783 541L822 544L861 535L900 545L900 601L861 601L822 601L783 601L743 601L704 601L665 601L626 601L587 601L548 601L509 601L470 601L430 601L391 601L352 601L313 601L274 601L235 601L196 601L157 601L117 601L78 601L39 601L0 601Z" fill="#afcccd"></path><path d="M0 540L39 549L78 546L117 561L157 530L196 556L235 537L274 541L313 559L352 560L391 556L430 534L470 555L509 559L548 535L587 547L626 560L665 560L704 539L743 549L783 556L822 553L861 551L900 534L900 601L861 601L822 601L783 601L743 601L704 601L665 601L626 601L587 601L548 601L509 601L470 601L430 601L391 601L352 601L313 601L274 601L235 601L196 601L157 601L117 601L78 601L39 601L0 601Z" fill="#c0d6d7"></path><path d="M0 570L39 550L78 551L117 567L157 569L196 544L235 551L274 573L313 547L352 569L391 565L430 565L470 552L509 572L548 555L587 547L626 550L665 554L704 567L743 572L783 561L822 553L861 564L900 561L900 601L861 601L822 601L783 601L743 601L704 601L665 601L626 601L587 601L548 601L509 601L470 601L430 601L391 601L352 601L313 601L274 601L235 601L196 601L157 601L117 601L78 601L39 601L0 601Z" fill="#d2e0e1"></path><path d="M0 576L39 567L78 561L117 576L157 566L196 570L235 585L274 577L313 584L352 568L391 572L430 564L470 564L509 580L548 586L587 564L626 567L665 575L704 569L743 558L783 568L822 559L861 577L900 574L900 601L861 601L822 601L783 601L743 601L704 601L665 601L626 601L587 601L548 601L509 601L470 601L430 601L391 601L352 601L313 601L274 601L235 601L196 601L157 601L117 601L78 601L39 601L0 601Z" fill="#e3ebeb"></path><path d="M0 574L39 596L78 584L117 582L157 591L196 586L235 598L274 582L313 589L352 572L391 576L430 595L470 574L509 583L548 577L587 578L626 574L665 590L704 596L743 592L783 583L822 595L861 576L900 583L900 601L861 601L822 601L783 601L743 601L704 601L665 601L626 601L587 601L548 601L509 601L470 601L430 601L391 601L352 601L313 601L274 601L235 601L196 601L157 601L117 601L78 601L39 601L0 601Z" fill="#f5f5f5"></path></svg>